<svg width="29" height="29" viewBox="0 0 29 29" xmlns="http://www.w3.org/2000/svg"><g fill="none" fill-rule="evenodd"><rect fill="#8E8E93" width="29" height="29" rx="6"/><g fill="#FFF"><path d="M5 19.614h12.017a1.698 1.698 0 0 1 1.554-1.023c.695 0 1.292.421 1.555 1.023H24v1.363h-3.874A1.698 1.698 0 0 1 18.57 22a1.698 1.698 0 0 1-1.554-1.023H5M5 13.818h3.874a1.698 1.698 0 0 1 1.555-1.023c.694 0 1.292.422 1.554 1.023H24v1.364H11.983a1.698 1.698 0 0 1-1.554 1.023 1.698 1.698 0 0 1-1.555-1.023H5M5 8.023h12.017A1.698 1.698 0 0 1 18.571 7c.695 0 1.292.421 1.555 1.023H24v1.363h-3.874a1.698 1.698 0 0 1-1.555 1.023 1.698 1.698 0 0 1-1.554-1.023H5"/></g></g></svg>