<svg width="29" height="29" viewBox="0 0 29 29" xmlns="http://www.w3.org/2000/svg"><g fill="none" fill-rule="evenodd"><rect fill="#8E8E93" width="29" height="29" rx="6"/><g fill="#FFF"><path d="M14.5 4h-.01-.015C8.685 4.015 4 8.71 4 14.5S8.685 24.985 14.475 25h.025C20.3 25 25 20.3 25 14.5S20.3 4 14.5 4zm0 20.162h-.01-.015c-5.32-.015-9.637-4.336-9.637-9.662 0-5.326 4.311-9.647 9.637-9.657h.025c5.336 0 9.662 4.326 9.662 9.662 0 5.33-4.326 9.657-9.662 9.657z"/><path d="M17.847 10.25c-.944.227-1.918.363-2.923.393v3.438h3.413a17.31 17.31 0 0 0-.49-3.831zM14.919 5.742v4.134c.934-.03 1.843-.151 2.716-.364-.661-2.09-1.691-3.462-2.716-3.77zM11.34 9.507c.883.212 1.797.339 2.736.369V5.731c-1.025.298-2.07 1.671-2.736 3.776zM20.79 8.311a8.793 8.793 0 0 0-4.235-2.398c.747.773 1.373 1.954 1.822 3.398.843-.258 1.65-.591 2.413-1zM19.109 14.081h4.205a8.776 8.776 0 0 0-1.994-5.18c-.863.475-1.777.864-2.731 1.152.308 1.211.49 2.58.52 4.028zM10.638 14.081h3.443v-3.438a14.16 14.16 0 0 1-2.948-.399c-.288 1.126-.464 2.418-.495 3.837zM18.337 14.919h-3.418v3.433c1.005.03 1.984.161 2.928.393.283-1.12.46-2.413.49-3.826zM11.133 18.75a14.16 14.16 0 0 1 2.948-.398v-3.433h-3.443c.03 1.418.207 2.71.495 3.831zM14.081 23.263V19.12c-.939.03-1.858.156-2.741.369.666 2.105 1.711 3.483 2.741 3.775zM16.555 23.087a8.84 8.84 0 0 0 4.24-2.403 13.343 13.343 0 0 0-2.413-1c-.45 1.45-1.08 2.625-1.827 3.403zM12.415 5.923A8.817 8.817 0 0 0 8.21 8.316c.757.404 1.555.737 2.388.99.45-1.44 1.075-2.61 1.817-3.383zM18.589 18.947c.96.288 1.873.677 2.736 1.151a8.776 8.776 0 0 0 1.994-5.179h-4.205c-.035 1.449-.217 2.812-.525 4.028zM14.919 19.119v4.14c1.025-.309 2.055-1.682 2.716-3.777a13.335 13.335 0 0 0-2.716-.363zM10.39 10.048a13.828 13.828 0 0 1-2.71-1.146 8.776 8.776 0 0 0-1.994 5.179h4.185a17.74 17.74 0 0 1 .52-4.033zM9.866 14.919H5.68a8.776 8.776 0 0 0 1.994 5.18 14.14 14.14 0 0 1 2.71-1.147 18.325 18.325 0 0 1-.52-4.033zM8.205 20.684a8.81 8.81 0 0 0 4.21 2.393c-.742-.773-1.368-1.949-1.817-3.388-.833.258-1.636.591-2.393.995z"/></g></g></svg>