<svg width="29" height="29" viewBox="0 0 29 29" xmlns="http://www.w3.org/2000/svg"><g fill="none" fill-rule="evenodd"><rect fill="#8E8E93" width="29" height="29" rx="6"/><path d="M22.225 18.305c-.703-.723-2.702-2.076-4.012-2.076-.303 0-.568.067-.785.207-.64.41-1.15.727-1.397.727-.134 0-.279-.12-.597-.395l-.053-.048c-.881-.766-1.069-.963-1.41-1.32l-.087-.09c-.063-.064-.116-.121-.169-.174-.299-.309-.515-.53-1.281-1.397l-.034-.038c-.366-.415-.607-.684-.621-.882-.014-.192.154-.505.583-1.088.52-.703.54-1.57.062-2.577-.38-.794-1.001-1.555-1.55-2.225l-.049-.057c-.471-.578-1.02-.867-1.632-.867-.68 0-1.243.366-1.541.558-.024.015-.048.034-.072.049-.67.423-1.156 1.006-1.34 1.598-.274.891-.457 2.047.858 4.45 1.137 2.08 2.167 3.477 3.805 5.158 1.54 1.58 2.224 2.09 3.756 3.198 1.705 1.233 3.342 1.94 4.488 1.94 1.065 0 1.903 0 3.097-1.44 1.252-1.511.732-2.436-.02-3.211z" fill="#FFF"/></g></svg>