<svg width="29" height="29" viewBox="0 0 29 29" xmlns="http://www.w3.org/2000/svg"><g fill="none" fill-rule="evenodd"><rect fill="#8E8E93" width="29" height="29" rx="6"/><path d="M20.87 20.907c-.765-.274-1.863-.369-2.564-.523-.404-.089-.992-.315-1.188-.546-.196-.238-.077-2.429-.077-2.429s.362-.57.558-1.068c.196-.5.41-1.865.41-1.865s.404 0 .546-.706c.155-.772.392-1.093.363-1.669-.03-.534-.31-.564-.339-.564 0 0 .291-.807.333-2.517C18.959 6.995 17.409 5 14.5 5c-2.91 0-4.453 1.99-4.412 4.014.036 1.704.333 2.517.333 2.517-.03 0-.309.03-.338.564-.03.576.213.885.362 1.657.142.706.546.712.546.712s.214 1.372.41 1.87c.196.505.558 1.07.558 1.07s.119 2.19-.077 2.428c-.196.237-.784.457-1.188.546-.707.154-1.799.255-2.565.529C7.363 21.18 5 22.1 5 24h19c0-1.9-2.363-2.82-3.13-3.093z" fill="#FFF"/></g></svg>