<svg width="29" height="29" viewBox="0 0 29 29" xmlns="http://www.w3.org/2000/svg"><g fill="none" fill-rule="evenodd"><rect fill="#8E8E93" width="29" height="29" rx="6"/><g fill="#FFF"><path d="M19.375 13.038V9.75c0-2.623-2.183-4.75-4.874-4.75-2.693 0-4.876 2.127-4.876 4.75v3.288H7V24h15V13.038h-2.625zm-4.5 5.8v1.508h-.75V18.84A1.47 1.47 0 0 1 13 17.423c0-.807.672-1.461 1.5-1.461s1.5.654 1.5 1.461a1.47 1.47 0 0 1-1.125 1.416zm3.75-5.8h-8.25V9.75c0-2.216 1.85-4.02 4.126-4.02 2.274 0 4.124 1.804 4.124 4.02v3.288z"/><path d="M14.5 16.692a.741.741 0 0 0-.75.731c0 .403.336.73.75.73s.75-.327.75-.73a.741.741 0 0 0-.75-.73z"/></g></g></svg>